<?xml version="1.0" encoding="UTF-8"?>
<!DOCTYPE svg PUBLIC "-//W3C//DTD SVG 1.1//EN" "http://www.w3.org/Graphics/SVG/1.1/DTD/svg11.dtd">
<svg xmlns="http://www.w3.org/2000/svg" version="1.1" width="513px" height="512px" style="shape-rendering:geometricPrecision; text-rendering:geometricPrecision; image-rendering:optimizeQuality; fill-rule:evenodd; clip-rule:evenodd" xmlns:xlink="http://www.w3.org/1999/xlink">
<g><path style="opacity:0.996" fill="#000000" d="M 241.5,4.5 C 340.741,2.6937 417.241,43.027 471,125.5C 508.585,191.013 516.585,260.013 495,332.5C 465.646,415.854 408.813,470.688 324.5,497C 236.421,518.991 157.754,500.991 88.5,443C 14.35,371.268 -10.15,285.102 15,184.5C 38.0165,112.486 83.5165,59.9855 151.5,27C 180.305,14.2115 210.305,6.71148 241.5,4.5 Z"/></g>
<g><path style="opacity:1" fill="#fbfbfb" d="M 248.5,59.5 C 251.85,59.335 255.183,59.5017 258.5,60C 259.591,62.0639 259.758,64.2305 259,66.5C 253.347,68.575 247.847,71.075 242.5,74C 234.56,82.1689 234.893,90.1689 243.5,98C 252.719,103.744 262.719,106.078 273.5,105C 293.021,89.2397 315.021,78.2397 339.5,72C 347.792,70.5949 356.125,70.2615 364.5,71C 373.555,74.6295 375.722,80.7962 371,89.5C 364.692,96.7405 356.859,101.574 347.5,104C 339.224,106.309 330.891,108.309 322.5,110C 306.132,111.87 289.799,113.537 273.5,115C 242.611,142.874 215.777,174.04 193,208.5C 182.511,225.479 174.178,243.479 168,262.5C 162.921,280.341 162.254,298.341 166,316.5C 170.1,332.261 180.266,341.428 196.5,344C 214.116,345.859 231.782,346.859 249.5,347C 267.94,347.449 279.106,356.616 283,374.5C 286.725,410.568 271.891,435.401 238.5,449C 227.94,451.261 217.273,451.928 206.5,451C 193.509,449.014 187.675,441.514 189,428.5C 192.317,420.921 198.151,417.587 206.5,418.5C 215.154,419.996 223.821,421.496 232.5,423C 239.833,423.667 247.167,423.667 254.5,423C 267.554,419.906 272.387,411.739 269,398.5C 265.97,391.891 260.803,388.058 253.5,387C 231.139,386.158 208.806,384.825 186.5,383C 162.996,378.497 148.162,364.663 142,341.5C 137.551,322.88 137.551,304.214 142,285.5C 147.908,260.11 157.908,236.443 172,214.5C 191.733,183.412 215.233,155.245 242.5,130C 249.019,124.904 255.352,119.571 261.5,114C 250.479,113.74 239.812,111.74 229.5,108C 216.258,102.264 211.425,92.431 215,78.5C 218.643,71.522 224.143,66.6887 231.5,64C 237.211,62.1657 242.878,60.6657 248.5,59.5 Z"/></g>
</svg>
