<svg id="Capa_1" data-name="Capa 1" xmlns="http://www.w3.org/2000/svg" viewBox="0 0 259.75 434.5"><path d="M256.38,38.75c2.16-.07,3.88,2.11,3.88,4.62s-1.68,3.85-3.89,4.62c-6.72,2.33-22.25,6.93-22.25,17.76q0,21.5,40.25,24.75Q325.63,51,368.62,51q17.25,0,17.25,12.5,0,15.25-30.87,25t-77.13,9.75a553.08,553.08,0,0,0-66.12,69.87Q182.62,205,168.13,237.37t-14.5,63.38q0,24.75,7.87,36.25a37.74,37.74,0,0,0,21.38,15.37q13.5,3.88,39.5,4.13,24.74.25,36.74,2.62T279,372q7.88,10.5,7.87,28.75,0,29.75-20.62,51.12t-52.12,21.38q-32.25,0-32.25-20.75,0-15.51,19.25-15.5,5.49,0,16,2.5a113,113,0,0,0,26.24,3.5q28.5,0,28.5-21.5T237.62,400H221.38q-40.26,0-58.5-7.88t-27.5-26.5a87.3,87.3,0,0,1-9.25-39.37q0-33.5,13.25-68.25t44.75-77.88q31.5-43.12,79.74-81.87-27.75,0-41.12-8.25T209.38,68.5q0-12.49,12.12-20.88C229.56,42.06,247.39,39.07,256.38,38.75Z" transform="translate(-126.13 -38.75)"/></svg>