<?xml version="1.0" encoding="utf-8"?>
<svg width="32px" height="32px" viewBox="0 0 32 32" version="1.1" xmlns:xlink="http://www.w3.org/1999/xlink" xmlns="http://www.w3.org/2000/svg">
  <defs>
    <path d="M0 0L32 0L32 32L0 32L0 0Z" id="path_1" />
    <clipPath id="mask_1">
      <use xlink:href="#path_1" />
    </clipPath>
  </defs>
  <g id="Linkedin-icon">
    <path d="M0 0L32 0L32 32L0 32L0 0Z" id="Background" fill="#FFFFFF" fill-opacity="0" fill-rule="evenodd" stroke="none" />
    <g clip-path="url(#mask_1)">
      <path d="M24.3333 4L7.66667 4C5.64533 4 4 5.64533 4 7.66667L4 24.3333C4 26.3547 5.64533 28 7.66667 28L24.3333 28C26.3547 28 28 26.3547 28 24.3333L28 7.66667C28 5.64533 26.3547 4 24.3333 4L24.3333 4ZM12.0001 22.6666C12.0001 23.0353 11.7021 23.3333 11.3334 23.3333L9.33342 23.3333C8.96475 23.3333 8.66675 23.0353 8.66675 22.6666L8.66675 13.9999C8.66675 13.6313 8.96475 13.3333 9.33342 13.3333L11.3334 13.3333C11.7021 13.3333 12.0001 13.6313 12.0001 13.9999L12.0001 22.6666L12.0001 22.6666ZM10.3334 12.0001C9.41275 12.0001 8.66675 11.2541 8.66675 10.3334C8.66675 9.41275 9.41275 8.66675 10.3334 8.66675C11.2541 8.66675 12.0001 9.41275 12.0001 10.3334C12.0001 11.2541 11.2541 12.0001 10.3334 12.0001L10.3334 12.0001ZM23.3333 22.6666C23.3333 23.0353 23.0353 23.3333 22.6666 23.3333L20.6666 23.3333C20.2979 23.3333 19.9999 23.0353 19.9999 22.6666L19.9999 17.6666C19.9999 16.7473 19.2526 15.9999 18.3333 15.9999C17.4139 15.9999 16.6666 16.7473 16.6666 17.6666L16.6666 22.6666C16.6666 23.0353 16.3686 23.3333 15.9999 23.3333L13.9999 23.3333C13.6313 23.3333 13.3333 23.0353 13.3333 22.6666L13.3333 13.9999C13.3333 13.6313 13.6313 13.3333 13.9999 13.3333L15.9999 13.3333C16.3686 13.3333 16.6666 13.6313 16.6666 13.9999L16.6666 14.3606C17.3753 13.7239 18.3079 13.3333 19.3333 13.3333C21.5393 13.3333 23.3333 15.1273 23.3333 17.3333L23.3333 22.6666L23.3333 22.6666Z" id="Shape" fill="#FFFFFF" fill-rule="evenodd" stroke="none" />
    </g>
  </g>
</svg>